<?xml version="1.0" encoding="UTF-8" standalone="no"?>

<svg width="23.815145mm" height="23.833742mm" viewBox="0 0 23.815145 23.833742" version="1.1"
	xmlns="http://www.w3.org/2000/svg" xmlns:svg="http://www.w3.org/2000/svg">
	<defs>
		<style id="style824">
			.cls-1 {
				fill: #fff;
			}

			.cls-2 {
				fill: #8d33e5;
			}

			.cls-3 {
				fill: #7000df;
			}

			.cls-4 {
				fill: #3f017f;
			}

			.cls-5 {
				fill: #531b8c;
			}

			.cls-6 {
				fill: #f4a900;
			}

			.cls-7 {
				fill: #78b6e4;
			}

			.cls-8 {
				fill: #20b5ac;
			}
		</style>
	</defs>
	<g transform="translate(-27.069202,-109.11373)">
		<path class="cls-2"
			d="m 38.975452,109.1482 c 4.085166,0 7.9375,1.2409 11.482916,3.27819 l 0.264584,0.11642 -0.07937,0.27781 a 22.301729,22.301729 0 0 1 -3.135313,11.34004 22.730354,22.730354 0 0 1 -8.342312,8.46667 l -0.1905,0.13758 -0.203729,-0.14552 c -3.526896,-2.04258 -6.199188,-4.91861 -8.225896,-8.44815 -2.026708,-3.52954 -3.243792,-7.45066 -3.249083,-11.52525 l -0.0344,-0.1905 0.137583,-0.10848 c 3.537479,-2.03993 7.487708,-3.22262 11.570229,-3.22527"
			id="path840" style="stroke-width:0.264583" />
		<path class="cls-3"
			d="m 50.585368,112.31262 a 23.283333,23.283333 0 0 0 -11.609916,-3.15913 v 23.47648 l 0.264583,0.15875 a 23.164271,23.164271 0 0 0 8.4455,-8.509 23.0505,23.0505 0 0 0 3.14325,-11.54641 v -0.29105 z"
			id="path842" style="stroke-width:0.264583" />
		<path class="cls-4"
			d="m 50.865827,112.68833 v -0.30957 l -0.264584,-0.15345 a 23.299208,23.299208 0 0 0 -23.264812,0 l -0.264583,0.15345 v 0.30957 a 23.283333,23.283333 0 0 0 11.641666,20.10833 l 0.264584,0.15081 0.264583,-0.15081 a 23.256875,23.256875 0 0 0 11.641667,-20.10833 z m -11.90625,19.08175 C 32.11216,127.76958 27.722723,120.60466 27.677744,112.67245 a 23.034625,23.034625 0 0 1 22.595416,0 c -0.03969,7.95338 -4.434417,15.09713 -11.303,19.08969 z"
			id="path844" style="stroke-width:0.264583" />
		<path class="cls-5"
			d="M 38.975452,131.76214 C 32.11216,127.76958 27.722723,120.60466 27.677744,112.67245 a 23.111354,23.111354 0 0 1 11.297708,-2.96069 v -0.59795 a 23.317729,23.317729 0 0 0 -11.641667,3.1115 l -0.264583,0.15345 v 0.30957 a 23.283333,23.283333 0 0 0 11.641666,20.10833 l 0.264584,0.15081 z"
			id="path846" style="stroke-width:0.264583" />
		<path class="cls-4"
			d="m 46.457868,116.52743 a 0.79374999,0.79374999 0 0 0 -0.04498,-0.26458 7.2231249,7.2231249 0 0 0 -1.161521,-2.11667 c -0.119062,-0.16404 -0.264583,-0.3175 -0.391583,-0.4789 l -0.103187,-0.11906 a 0.63764583,0.63764583 0 0 0 -0.148167,-0.11906 0.67733332,0.67733332 0 0 0 -0.359833,-0.0926 0.72231249,0.72231249 0 0 0 -0.182563,0.037 0.36247916,0.36247916 0 0 0 -0.08202,0.0344 c 0,0 -4.333875,2.34686 -5.005916,2.69611 -0.669396,-0.34925 -4.979459,-2.71198 -5.082646,-2.71992 a 0.72231249,0.72231249 0 0 0 -0.182563,-0.037 0.69849999,0.69849999 0 0 0 -0.362479,0.0926 0.52916666,0.52916666 0 0 0 -0.145521,0.11907 l -0.103187,0.11906 c -0.134938,0.15346 -0.264583,0.30691 -0.391583,0.47889 a 7.9983541,7.9983541 0 0 0 -1.148292,2.01877 0.81756249,0.81756249 0 0 0 -0.07938,0.3519 0.82549999,0.82549999 0 0 0 0.296333,0.64294 0.28045833,0.28045833 0 0 0 0.05556,0.0423 l 0.05556,0.037 0.08202,0.0556 0.679979,0.42333 1.352021,0.84137 1.354667,0.85196 1.127125,0.67469 0.01588,4.7625 v 0.52917 0.26458 a 1.0292292,1.0292292 0 0 0 0,0.15081 0.96837499,0.96837499 0 0 0 0.0635,0.26459 1.0583333,1.0583333 0 0 0 0.314854,0.39687 1.3784791,1.3784791 0 0 0 0.463021,0.21696 5.0694166,5.0694166 0 0 0 0.515937,0.10319 7.8660624,7.8660624 0 0 0 2.201333,0 c 0.264584,-0.0423 0.33073,-0.0582 0.505355,-0.0979 a 1.1033125,1.1033125 0 0 0 0.468312,-0.22225 1.0583333,1.0583333 0 0 0 0.314854,-0.39687 0.96837499,0.96837499 0 0 0 0.0635,-0.26459 c 0,-0.0582 0,-0.10319 0,-0.15081 0,0 0.05821,-4.29419 0.03969,-5.54302 l 1.113896,-0.67998 1.38377,-0.86519 1.362605,-0.84931 0.677333,-0.42598 v 0 a 0.84666666,0.84666666 0 0 0 0.468312,-0.762 z"
			id="path848" style="stroke-width:0.264583" />
		<path class="cls-6"
			d="m 37.00166,119.83208 a 2.6458333,2.6458333 0 0 0 -0.264583,-1.16152 2.682875,2.682875 0 0 0 -0.740833,-0.92605 c -0.891646,-0.71173 -2.280709,-0.96837 -3.627438,-0.67468 -0.08731,0.0159 -0.333375,-0.1323 -0.420687,-0.15082 0,0 -0.02117,-0.0159 0.02646,0.0265 0.04763,0.0423 0.03704,0.0767 0.04763,0.0847 l 4.979458,2.85485 z"
			id="path850" style="stroke-width:0.264583" />
		<path class="cls-7"
			d="m 41.359348,116.7047 c 1.058333,-0.41539 1.976437,-1.48696 2.397125,-2.794 0.03175,-0.0953 0.198437,-0.11906 0.264583,-0.18256 0.02381,-0.0185 -0.05556,-0.10319 -0.0291,-0.11906 l -5.027084,2.89189 0.0635,0.0344 a 2.6458333,2.6458333 0 0 0 2.31775,0.16933 z"
			id="path852" style="stroke-width:0.264583" />
		<path class="cls-8"
			d="m 40.859285,119.96437 a 2.619375,2.619375 0 0 0 -1.272646,1.91558 c -0.15875,1.12713 0.309563,2.45004 1.232959,3.45546 0.07144,0.0741 0.06614,0.21431 0.08202,0.31221 0,0.0265 0.02911,0.0265 0.05556,0.0423 l 0.02117,-5.78379 z"
			id="path854" style="stroke-width:0.264583" />
		<path class="cls-4"
			d="m 39.819473,122.09956 a 2.6458333,2.6458333 0 0 1 1.357312,-1.8759 l -0.206375,-0.32279 -0.111125,0.0688 a 2.5638125,2.5638125 0 0 0 -0.85725,0.80962 2.6458333,2.6458333 0 0 0 -0.415396,1.10596 c -0.134937,0.98161 0.206375,2.1299 0.923396,3.07975 a 4.5587708,4.5587708 0 0 1 -0.690562,-2.86543 z"
			id="path856" style="stroke-width:0.264583" />
		<path class="cls-4"
			d="m 41.406973,116.40837 a 2.6458333,2.6458333 0 0 1 -2.301875,-0.24871 l -0.182563,0.33602 0.113771,0.0688 a 2.6458333,2.6458333 0 0 0 2.293937,0.1614 4.7995416,4.7995416 0 0 0 2.38125,-2.36802 c 0,-0.0185 -0.07144,-0.10584 -0.14552,0.0529 a 4.5217291,4.5217291 0 0 1 -2.159,1.99761 z"
			id="path858" style="stroke-width:0.264583" />
		<path class="cls-4"
			d="m 35.715785,117.91649 a 2.38125,2.38125 0 0 1 0.875771,2.01613 l 0.381,0.11906 0.119063,-0.12965 c 0.02381,-0.79375 -0.328084,-1.81239 -0.960438,-2.32833 -0.732896,-0.61912 -2.278062,-0.8255 -3.315229,-0.67204 -0.03969,0 -0.05821,0.0661 0.214312,0.0556 a 4.1645416,4.1645416 0 0 1 2.685521,0.93927 z"
			id="path860" style="stroke-width:0.264583" />
		<path class="cls-1"
			d="m 38.975452,126.35406 a 6.1012916,6.1012916 0 0 1 -1.5875,-0.20638 0.52916666,0.52916666 0 0 1 -0.386292,-0.49477 v -5.82083 a 2.6458333,2.6458333 0 0 0 -0.989541,-2.08227 c -0.891646,-0.71173 -2.280709,-0.96838 -3.627438,-0.67469 a 0.51329166,0.51329166 0 0 1 -0.396875,-0.0688 0.52916666,0.52916666 0 0 1 -0.235479,-0.32809 0.51064583,0.51064583 0 0 1 0.02117,-0.30162 8.9243957,8.9243957 0 0 1 0.629708,-1.39436 5.8605208,5.8605208 0 0 1 0.963083,-1.27 0.52916666,0.52916666 0 0 1 0.629709,-0.0741 l 4.90802,2.82575 0.129646,0.0767 a 2.619375,2.619375 0 0 0 2.312458,0.16404 c 1.058334,-0.41539 1.979084,-1.48696 2.399771,-2.794 a 0.52916666,0.52916666 0 0 1 0.0979,-0.18256 0.61383333,0.61383333 0 0 1 0.164042,-0.12965 0.59531249,0.59531249 0 0 1 0.198437,-0.0609 0.46566666,0.46566666 0 0 1 0.206375,0.0238 0.54504166,0.54504166 0 0 1 0.248709,0.16669 8.9958332,8.9958332 0 0 1 0.891645,1.24883 5.6065208,5.6065208 0 0 1 0.613834,1.47902 0.52916666,0.52916666 0 0 1 -0.02646,0.33338 0.50799999,0.50799999 0 0 1 -0.22225,0.24871 l -4.937125,2.84691 -0.134937,0.0794 a 2.6458333,2.6458333 0 0 0 -1.272646,1.91558 c -0.15875,1.12713 0.309563,2.45004 1.232958,3.45546 a 0.52916666,0.52916666 0 0 1 0.111125,0.52917 0.52916666,0.52916666 0 0 1 -0.15875,0.23018 0.55033333,0.55033333 0 0 1 -0.264583,0.11907 9.8742499,9.8742499 0 0 1 -1.518708,0.14023 z"
			id="path862" style="stroke-width:0.264583" />
	</g>
</svg>